<svg width="24" height="24" version="1.1" xmlns="http://www.w3.org/2000/svg" desc="Created with imagetracer.js version 1.2.6" ><path fill="rgb(0,0,0)" stroke="rgb(0,0,0)" stroke-width="1" opacity="0" d="M 0 0 L 24 0 L 24 24 L 0 24 L 0 0 Z M 12 1 L 6 9 L 6 21 L 18 21 L 22 15 L 22 8 L 16 8 L 16 3 Q 15 0 12 1 Z M 2 8 L 2 21 L 4 21 L 4 9 L 2 8 Z " /><path fill="rgb(0,0,0)" stroke="rgb(0,0,0)" stroke-width="1" opacity="0.5764705882352941" d="M 12.5 4 L 14 7.5 L 13 7.5 L 12.5 6 L 9 8.5 L 12.5 4 Z " /><path fill="rgb(0,0,0)" stroke="rgb(0,0,0)" stroke-width="1" opacity="0.5764705882352941" d="M 8.5 6 L 6.5 9 L 8.5 6 Z " /><path fill="rgb(0,0,0)" stroke="rgb(0,0,0)" stroke-width="1" opacity="0.9725490196078431" d="M 9.5 7 L 8.5 9 L 9.5 7 Z " /><path fill="rgb(0,0,0)" stroke="rgb(0,0,0)" stroke-width="1" opacity="1" d="M 11 2 L 15 3.5 Q 12.8 10.3 19.5 8 L 22 11.5 L 20.5 14 L 20 10 L 13 9.5 L 14 3 Q 11 1.8 12 5.5 L 8 8.5 L 8 19 L 16.5 19 L 19.5 15 L 19 16.5 L 16.5 21 Q 8 23 6 18.5 Q 4.3 8.8 9.5 6 L 11 6 L 11 2 Z " /><path fill="rgb(0,0,0)" stroke="rgb(0,0,0)" stroke-width="1" opacity="1" d="M 2 8 L 4 8.5 L 4 21 L 2 20.5 L 2 8 Z " /><path fill="rgb(0,0,0)" stroke="rgb(0,0,0)" stroke-width="1" opacity="0.23137254901960785" d="M 14.5 1 L 15.5 3 L 14.5 1 Z " /><path fill="rgb(0,0,0)" stroke="rgb(0,0,0)" stroke-width="1" opacity="0.30196078431372547" d="M 13.5 4 L 14 5.5 L 12 9.5 L 20 10 L 17 19 L 8 19 L 8 9 L 13 5.5 L 13.5 4 Z " /><path fill="rgb(0,0,0)" stroke="rgb(0,0,0)" stroke-width="1" opacity="0.8313725490196079" d="M 20.5 8 L 21.5 10 L 20.5 8 Z " /><path fill="rgb(0,0,0)" stroke="rgb(0,0,0)" stroke-width="1" opacity="0.8313725490196079" d="M 6.5 19 L 7.5 21 L 6.5 19 Z " /></svg>